# xmcd CD database file
#
# Track frame offsets:
#	150
#	12755
#	26872
#	40830
#	53835
#	66357
#	78245
#	92572
#	100277
#	108570
#	118635
#	131447
#	144435
#	157352
#	167780
#	179945
#	193310
#	204992
#
# Disc length: 2909 seconds
#
# Revision: 1
# Processed by: cddbd v1.5PL3 Copyright (c) Steve Scherf et al.
# Submitted via: CDex 1.50beta10
#
DISCID=060b5b12
DTITLE=Fats Waller - 1935-1936 (Jazz Portraits)
DYEAR=1900
DGENRE=Jazz
TTITLE0=I Ain't Got Nobody (and Nobdy Cares for Me)
TTITLE1=I Got Rhythm
TTITLE2=Dinah
TTITLE3=Sweet Sue, Just You
TTITLE4=Twelfth Street Rag
TTITLE5=Lulu's Back in Town
TTITLE6=B Flat Blues
TTITLE7=Zonky
TTITLE8=How Can You Face Me?
TTITLE9=I'm Crazy 'Bout My Baby
TTITLE10=S'Posin'
TTITLE11=Why Do I Lie to Myself About You?
TTITLE12=I Just Made Up with That Old Girl of Mine
TTITLE13=Floatin' Down to Cotton Town
TTITLE14=Hallelujah! Things Look Rosy Now
TTITLE15=I Believe in Miracles
TTITLE16=Paswonky
TTITLE17=Swingin' Them Jingle Bells
EXTD=
EXTT0=
EXTT1=
EXTT2=
EXTT3=
EXTT4=
EXTT5=
EXTT6=
EXTT7=
EXTT8=
EXTT9=
EXTT10=
EXTT11=
EXTT12=
EXTT13=
EXTT14=
EXTT15=
EXTT16=
EXTT17=
PLAYORDER=
